<?xml version="1.0" encoding="utf-8"?>
<svg version="1.1" xmlns:xlink="http://www.w3.org/1999/xlink" width="23px" height="18px" xmlns="http://www.w3.org/2000/svg">
  <g transform="matrix(1 0 0 1 -1218 -542 )">
    <path d="M 1 0  L 1 18  L 0 18  L 0 0  L 1 0  Z M 2 0  L 2 17.98721590909091  L 1.2064732142857144 17.98721590909091  L 1.2064732142857144 0  L 2 0  Z M 3 0  L 3 17.98721590909091  L 2.42578125 17.98721590909091  L 2.42578125 0  L 3 0  Z M 5 0  L 5 17.98721590909091  L 4.440848214285714 17.98721590909091  L 4.440848214285714 0  L 5 0  Z M 7 0  L 7 17.98721590909091  L 6 17.98721590909091  L 6 0  L 7 0  Z M 8.470982142857144 0  L 8.470982142857144 17.98721590909091  L 8 17.98721590909091  L 8 0  L 8.470982142857144 0  Z M 9.279575892857144 0  L 9.279575892857144 17.98721590909091  L 9 17.98721590909091  L 9 0  L 9.279575892857144 0  Z M 10 0  L 10 17.98721590909091  L 10 0  Z M 12 0  L 12 17.98721590909091  L 11 17.98721590909091  L 11 0  L 12 0  Z M 14 0  L 14 17.98721590909091  L 13 17.98721590909091  L 13 0  L 14 0  Z M 15.735491071428571 0  L 15.735491071428571 17.98721590909091  L 15 17.98721590909091  L 15 0  L 15.735491071428571 0  Z M 17 0  L 17 17.98721590909091  L 16.54408482142857 17.98721590909091  L 16.54408482142857 0  L 17 0  Z M 18.55915178571429 0  L 18.55915178571429 17.98721590909091  L 17.75055803571429 17.98721590909091  L 17.75055803571429 0  L 18.55915178571429 0  Z M 21 0  L 21 17.98721590909091  L 19.77845982142857 17.98721590909091  L 19.77845982142857 0  L 21 0  Z M 21.79352678571429 0  L 21.79352678571429 17.98721590909091  L 21 17.98721590909091  L 21 0  L 21.79352678571429 0  Z M 23 0  L 23 18  L 22 18  L 22 0  L 23 0  Z " fill-rule="nonzero" fill="#000000" stroke="none" transform="matrix(1 0 0 1 1218 542 )" />
  </g>
</svg>