<?xml version="1.0" encoding="utf-8"?>
<svg version="1.1" xmlns:xlink="http://www.w3.org/1999/xlink" width="23px" height="18px" xmlns="http://www.w3.org/2000/svg">
  <g transform="matrix(1 0 0 1 -1408 -542 )">
    <path d="M 21.716517857142858 6.9161931818181825  C 22.204241071428573 6.5838068181818175  22.632068452380956 6.2130681818181825  23 5.803977272727272  L 23 15.954545454545455  C 23 16.517045454545453  22.798921130952383 16.998579545454547  22.396763392857142 17.399147727272727  C 21.99460565476191 17.799715909090907  21.51116071428572 18  20.94642857142857 18  L 2.053571428571429 18  C 1.4888392857142858 18  1.0053943452380953 17.799715909090907  0.6032366071428572 17.399147727272727  C 0.20107886904761912 16.998579545454547  0 16.517045454545453  0 15.954545454545455  L 0 5.803977272727272  C 0.37648809523809534 6.221590909090908  0.8085937500000001 6.592329545454543  1.2963169642857144 6.9161931818181825  C 4.393787202380953 9.012784090909092  6.520089285714286 10.482954545454545  7.675223214285714 11.326704545454545  C 8.162946428571429 11.684659090909092  8.558686755952381 11.963778409090907  8.862444196428571 12.1640625  C 9.166201636904763 12.364346590909088  9.570498511904763 12.568892045454545  10.075334821428571 12.777698863636365  C 10.580171130952381 12.986505681818182  11.05078125 13.090909090909092  11.487165178571429 13.090909090909092  L 11.5 13.090909090909092  L 11.512834821428571 13.090909090909092  C 11.949218750000002 13.090909090909092  12.419828869047619 12.986505681818182  12.924665178571429 12.777698863636365  C 13.42950148809524 12.568892045454545  13.83379836309524 12.364346590909088  14.137555803571429 12.1640625  C 14.441313244047619 11.963778409090907  14.837053571428571 11.684659090909092  15.324776785714286 11.326704545454545  C 16.779389880952383 10.278409090909092  18.90997023809524 8.808238636363637  21.716517857142858 6.9161931818181825  Z M 22.390345982142858 0.6008522727272718  C 22.79678199404762 1.001420454545453  23 1.4829545454545456  23 2.045454545454546  C 23 2.7187499999999973  22.790364583333336 3.3622159090909087  22.37109375 3.9758522727272716  C 21.951822916666668 4.589488636363637  21.429873511904763 5.113636363636363  20.80524553571429 5.548295454545454  C 17.587983630952383 7.772727272727272  15.58575148809524 9.157670454545455  14.798549107142858 9.703125  C 14.712983630952383 9.76278409090909  14.531156994047619 9.892755681818182  14.253069196428571 10.093039772727273  C 13.974981398809526 10.293323863636363  13.74395461309524 10.455255681818182  13.559988839285714 10.578835227272727  C 13.37602306547619 10.702414772727272  13.153552827380954 10.840909090909092  12.892578125 10.994318181818183  C 12.631603422619047 11.147727272727273  12.385602678571429 11.262784090909092  12.154575892857142 11.339488636363635  C 11.923549107142858 11.416193181818183  11.709635416666668 11.454545454545455  11.512834821428571 11.454545454545455  L 11.5 11.454545454545455  L 11.487165178571429 11.454545454545455  C 11.290364583333334 11.454545454545455  11.076450892857144 11.416193181818183  10.845424107142856 11.339488636363635  C 10.614397321428571 11.262784090909092  10.368396577380953 11.147727272727273  10.107421875 10.994318181818183  C 9.846447172619047 10.840909090909092  9.62397693452381 10.702414772727272  9.440011160714285 10.578835227272727  C 9.256045386904763 10.455255681818182  9.025018601190478 10.293323863636363  8.746930803571429 10.093039772727273  C 8.468843005952381 9.892755681818182  8.28701636904762 9.76278409090909  8.201450892857144 9.703125  C 7.422805059523809 9.157670454545455  6.301897321428571 8.379971590909092  4.838727678571428 7.370028409090908  C 3.3755580357142856 6.360085227272727  2.498511904761905 5.7528409090909065  2.207589285714286 5.548295454545454  C 1.6770833333333335 5.1903409090909065  1.176525297619048 4.698153409090908  0.7059151785714287 4.071732954545454  C 0.23530505952380962 3.4453125  0 2.8636363636363633  0 2.326704545454546  C 0 1.6619318181818175  0.17754836309523817 1.107954545454543  0.5326450892857144 0.6647727272727282  C 0.8877418154761907 0.2215909090909074  1.3947172619047623 0  2.053571428571429 0  L 20.94642857142857 0  C 21.502604166666668 0  21.983909970238095 0.2002840909090886  22.390345982142858 0.6008522727272718  Z " fill-rule="nonzero" fill="#ffffff" stroke="none" transform="matrix(1 0 0 1 1408 542 )" />
  </g>
</svg>