<?xml version="1.0" encoding="utf-8"?>
<svg version="1.1" xmlns:xlink="http://www.w3.org/1999/xlink" width="14px" height="14px" xmlns="http://www.w3.org/2000/svg">
  <g transform="matrix(1 0 0 1 -32 -203 )">
    <path d="M 10.67578125 5.51171875  C 10.74609375 5.39453125  10.765625 5.268229166666666  10.734375 5.1328125  C 10.703125 4.997395833333332  10.62890625 4.89453125  10.51171875 4.82421875  C 10.39453125 4.753906249999999  10.268229166666668 4.734375000000001  10.1328125 4.765625  C 8.7734375 5.088541666666666  7.729166666666667 5.25  7 5.25  C 6.270833333333334 5.25  5.2265625 5.088541666666666  3.8671874999999996 4.765625  C 3.7317708333333335 4.734375000000001  3.60546875 4.753906249999999  3.48828125 4.82421875  C 3.37109375 4.89453125  3.296875 4.997395833333332  3.265625 5.1328125  C 3.234375 5.268229166666666  3.25390625 5.39453125  3.32421875 5.51171875  C 3.39453125 5.628906249999999  3.4973958333333335 5.703125  3.6328125 5.734375  C 4.643229166666667 5.973958333333332  5.432291666666667 6.125  6 6.1875  C 5.989583333333334 7.010416666666666  5.94921875 7.7109375  5.87890625 8.2890625  C 5.80859375 8.8671875  5.739583333333334 9.272135416666666  5.671875 9.50390625  C 5.604166666666667 9.735677083333332  5.497395833333334 10.036458333333332  5.3515625 10.40625  L 5.28125 10.5703125  C 5.229166666666667 10.700520833333334  5.231770833333334 10.828125  5.2890625 10.953125  C 5.346354166666667 11.078125  5.440104166666667 11.166666666666666  5.5703125 11.21875  C 5.6171875 11.239583333333332  5.677083333333334 11.25  5.75 11.25  C 5.979166666666668 11.25  6.135416666666668 11.143229166666666  6.21875 10.9296875  L 6.28125 10.7734375  C 6.562500000000001 10.049479166666666  6.747395833333334 9.375  6.8359375 8.75  L 7.1640625 8.75  C 7.252604166666667 9.375  7.4375 10.049479166666666  7.71875 10.7734375  L 7.78125 10.9296875  C 7.864583333333334 11.143229166666666  8.020833333333334 11.25  8.25 11.25  C 8.322916666666668 11.25  8.3828125 11.239583333333332  8.4296875 11.21875  C 8.559895833333334 11.166666666666666  8.653645833333334 11.078125  8.7109375 10.953125  C 8.768229166666668 10.828125  8.770833333333334 10.700520833333334  8.71875 10.5703125  L 8.6484375 10.40625  C 8.502604166666668 10.036458333333332  8.395833333333334 9.735677083333332  8.328125 9.50390625  C 8.260416666666668 9.272135416666666  8.19140625 8.8671875  8.12109375 8.2890625  C 8.05078125 7.7109375  8.010416666666668 7.010416666666666  8 6.1875  C 8.567708333333334 6.125  9.356770833333334 5.973958333333332  10.3671875 5.734375  C 10.502604166666668 5.703125  10.60546875 5.628906249999999  10.67578125 5.51171875  Z M 7.707031249999999 4.707031250000001  C 7.90234375 4.51171875  8 4.276041666666666  8 4  C 8 3.723958333333332  7.90234375 3.4882812499999996  7.707031249999999 3.2929687500000004  C 7.51171875 3.09765625  7.276041666666668 3  7 3  C 6.723958333333334 3  6.488281250000001 3.09765625  6.29296875 3.2929687500000004  C 6.09765625 3.4882812499999996  6 3.723958333333332  6 4  C 6 4.276041666666666  6.09765625 4.51171875  6.29296875 4.707031250000001  C 6.488281250000001 4.90234375  6.723958333333334 4.999999999999999  7 4.999999999999999  C 7.276041666666668 4.999999999999999  7.51171875 4.90234375  7.707031249999999 4.707031250000001  Z M 12.06640625 4.863281249999999  C 12.35546875 5.54296875  12.5 6.255208333333332  12.5 7  C 12.5 7.744791666666665  12.35546875 8.45703125  12.06640625 9.13671875  C 11.77734375 9.81640625  11.38671875 10.40234375  10.89453125 10.89453125  C 10.40234375 11.38671875  9.81640625 11.77734375  9.13671875 12.06640625  C 8.45703125 12.35546875  7.744791666666667 12.5  7 12.5  C 6.255208333333334 12.5  5.54296875 12.35546875  4.86328125 12.06640625  C 4.18359375 11.77734375  3.5976562500000004 11.38671875  3.10546875 10.89453125  C 2.61328125 10.40234375  2.22265625 9.81640625  1.9335937499999998 9.13671875  C 1.64453125 8.45703125  1.5 7.744791666666665  1.5 7  C 1.5 6.255208333333332  1.64453125 5.54296875  1.9335937499999998 4.863281249999999  C 2.22265625 4.18359375  2.61328125 3.5976562499999996  3.10546875 3.1054687499999996  C 3.5976562500000004 2.6132812499999996  4.18359375 2.22265625  4.86328125 1.9335937500000002  C 5.54296875 1.6445312500000007  6.255208333333334 1.4999999999999993  7 1.4999999999999993  C 7.744791666666667 1.4999999999999993  8.45703125 1.6445312500000007  9.13671875 1.9335937500000002  C 9.81640625 2.22265625  10.40234375 2.6132812499999996  10.89453125 3.1054687499999996  C 11.38671875 3.5976562499999996  11.77734375 4.18359375  12.06640625 4.863281249999999  Z M 9.328125 1.4765625  C 8.588541666666668 1.1588541666666659  7.8125 0.9999999999999996  7 0.9999999999999996  C 6.1875 0.9999999999999996  5.411458333333334 1.1588541666666659  4.671875 1.4765625  C 3.932291666666667 1.7942708333333326  3.294270833333334 2.221354166666667  2.7578125 2.757812499999999  C 2.221354166666667 3.294270833333332  1.7942708333333335 3.932291666666666  1.4765625 4.671874999999999  C 1.1588541666666667 5.411458333333332  1 6.1875  1 7  C 1 7.8125  1.1588541666666667 8.588541666666666  1.4765625 9.328125  C 1.7942708333333335 10.067708333333334  2.221354166666667 10.705729166666666  2.7578125 11.2421875  C 3.294270833333334 11.778645833333336  3.932291666666667 12.205729166666666  4.671875 12.5234375  C 5.411458333333334 12.841145833333334  6.1875 13  7 13  C 7.8125 13  8.588541666666668 12.841145833333334  9.328125 12.5234375  C 10.067708333333334 12.205729166666666  10.705729166666668 11.778645833333336  11.2421875 11.2421875  C 11.778645833333336 10.705729166666666  12.205729166666668 10.067708333333334  12.5234375 9.328125  C 12.841145833333334 8.588541666666666  13 7.8125  13 7  C 13 6.1875  12.841145833333334 5.411458333333332  12.5234375 4.671874999999999  C 12.205729166666668 3.932291666666666  11.778645833333336 3.294270833333332  11.2421875 2.757812499999999  C 10.705729166666668 2.221354166666667  10.067708333333334 1.7942708333333326  9.328125 1.4765625  Z M 13.4453125 4.28125  C 13.815104166666668 5.145833333333332  14 6.052083333333333  14 7  C 14 7.947916666666666  13.815104166666668 8.854166666666666  13.4453125 9.71875  C 13.075520833333336 10.583333333333332  12.578125000000002 11.328125  11.953125 11.953125  C 11.328125 12.578125  10.583333333333334 13.075520833333334  9.71875 13.4453125  C 8.854166666666668 13.815104166666666  7.947916666666667 14  7 14  C 6.052083333333334 14  5.145833333333334 13.815104166666666  4.28125 13.4453125  C 3.416666666666667 13.075520833333334  2.671875 12.578125  2.046875 11.953125  C 1.421875 11.328125  0.9244791666666667 10.583333333333332  0.5546875 9.71875  C 0.18489583333333331 8.854166666666666  0 7.947916666666666  0 7  C 0 6.052083333333333  0.18489583333333331 5.145833333333332  0.5546875 4.28125  C 0.9244791666666667 3.416666666666665  1.421875 2.671875  2.046875 2.046874999999999  C 2.671875 1.421875  3.416666666666667 0.9244791666666663  4.28125 0.5546874999999998  C 5.145833333333334 0.18489583333333326  6.052083333333334 0  7 0  C 7.947916666666667 0  8.854166666666668 0.18489583333333326  9.71875 0.5546874999999998  C 10.583333333333334 0.9244791666666663  11.328125 1.421875  11.953125 2.046874999999999  C 12.578125000000002 2.671875  13.075520833333336 3.416666666666665  13.4453125 4.28125  Z " fill-rule="nonzero" fill="#ffffff" stroke="none" transform="matrix(1 0 0 1 32 203 )" />
  </g>
</svg>