<?xml version="1.0" encoding="utf-8"?>
<svg version="1.1" xmlns:xlink="http://www.w3.org/1999/xlink" width="14px" height="14px" xmlns="http://www.w3.org/2000/svg">
  <g transform="matrix(1 0 0 1 -32 -120 )">
    <path d="M 9.78125 12.31640625  C 10.640625 11.860677083333336  11.346354166666668 11.2421875  11.8984375 10.4609375  C 11.783854166666668 9.653645833333332  11.555989583333334 8.983072916666666  11.21484375 8.44921875  C 10.873697916666668 7.915364583333334  10.393229166666668 7.606770833333332  9.7734375 7.523437499999999  C 9.424479166666668 7.908854166666665  9.009114583333334 8.209635416666664  8.52734375 8.42578125  C 8.045572916666668 8.641927083333332  7.536458333333334 8.75  7 8.75  C 6.463541666666667 8.75  5.954427083333334 8.641927083333332  5.47265625 8.42578125  C 4.990885416666667 8.209635416666664  4.575520833333334 7.908854166666665  4.2265625 7.523437499999999  C 3.606770833333333 7.606770833333332  3.1263020833333335 7.915364583333334  2.78515625 8.44921875  C 2.444010416666667 8.983072916666666  2.2161458333333335 9.653645833333332  2.1015625 10.4609375  C 2.6536458333333335 11.2421875  3.359375 11.860677083333336  4.21875 12.31640625  C 5.078125 12.772135416666666  6.005208333333334 13  7 13  C 7.994791666666668 13  8.921875 12.772135416666666  9.78125 12.31640625  Z M 9.12109375 7.12109375  C 9.70703125 6.53515625  10 5.828125000000001  10 4.999999999999999  C 10 4.171875  9.70703125 3.46484375  9.12109375 2.87890625  C 8.53515625 2.292968749999999  7.828125 2.000000000000001  7 2.000000000000001  C 6.171875 2.000000000000001  5.46484375 2.292968749999999  4.87890625 2.87890625  C 4.29296875 3.46484375  4 4.171875  4 4.999999999999999  C 4 5.828125000000001  4.29296875 6.53515625  4.87890625 7.12109375  C 5.46484375 7.707031250000001  6.171875 8  7 8  C 7.828125 8  8.53515625 7.707031250000001  9.12109375 7.12109375  Z M 13.4453125 4.28125  C 13.815104166666668 5.145833333333332  14 6.052083333333333  14 7  C 14 7.947916666666666  13.815104166666668 8.852864583333332  13.4453125 9.71484375  C 13.075520833333336 10.576822916666666  12.579427083333336 11.321614583333332  11.95703125 11.94921875  C 11.334635416666668 12.576822916666666  10.591145833333334 13.075520833333334  9.7265625 13.4453125  C 8.861979166666668 13.815104166666666  7.953124999999999 14  7 14  C 6.052083333333334 14  5.145833333333334 13.815104166666666  4.28125 13.4453125  C 3.416666666666667 13.075520833333334  2.671875 12.578125  2.046875 11.953125  C 1.421875 11.328125  0.9244791666666667 10.583333333333332  0.5546875 9.71875  C 0.18489583333333331 8.854166666666666  0 7.947916666666666  0 7  C 0 6.052083333333333  0.18489583333333331 5.145833333333332  0.5546875 4.28125  C 0.9244791666666667 3.416666666666665  1.421875 2.671875  2.046875 2.046874999999999  C 2.671875 1.421875  3.416666666666667 0.9244791666666663  4.28125 0.5546874999999998  C 5.145833333333334 0.18489583333333326  6.052083333333334 0  7 0  C 7.947916666666667 0  8.854166666666668 0.18489583333333326  9.71875 0.5546874999999998  C 10.583333333333334 0.9244791666666663  11.328125 1.421875  11.953125 2.046874999999999  C 12.578125000000002 2.671875  13.075520833333336 3.416666666666665  13.4453125 4.28125  Z " fill-rule="nonzero" fill="#000000" stroke="none" transform="matrix(1 0 0 1 32 120 )" />
  </g>
</svg>