<?xml version="1.0" encoding="utf-8"?>
<svg version="1.1" xmlns:xlink="http://www.w3.org/1999/xlink" width="17px" height="12px" xmlns="http://www.w3.org/2000/svg">
  <g transform="matrix(1 0 0 1 -31 -77 )">
    <path d="M 1.4166666666666665 0  L 15.583333333333332 0  C 15.972916666666666 0  16.30642361111111 0.12239583333333215  16.583854166666665 0.36718750000000044  C 16.861284722222223 0.6119791666666661  17.000000000000004 0.9062500000000004  17 1.2499999999999996  L 17 10.75  C 17.000000000000004 11.09375  16.861284722222223 11.388020833333334  16.583854166666665 11.6328125  C 16.30642361111111 11.877604166666666  15.972916666666666 12  15.583333333333332 12  L 1.4166666666666665 12  C 1.0270833333333333 12  0.6935763888888891 11.877604166666666  0.4161458333333333 11.6328125  C 0.13871527777777778 11.388020833333334  0 11.09375  0 10.75  L 0 1.2499999999999996  C 0 0.9062500000000004  0.13871527777777778 0.6119791666666661  0.4161458333333333 0.36718750000000044  C 0.6935763888888891 0.12239583333333215  1.0270833333333333 0  1.4166666666666665 0  Z M 15.583333333333332 1  L 1.4166666666666665 1  C 1.3399305555555558 1.0000000000000004  1.2735243055555558 1.0247395833333321  1.2174479166666665 1.0742187499999996  C 1.1613715277777779 1.1236979166666656  1.1333333333333333 1.1822916666666656  1.1333333333333333 1.2499999999999996  L 1.1333333333333333 3  L 15.866666666666667 3  L 15.866666666666667 1.2499999999999996  C 15.866666666666667 1.1822916666666656  15.838628472222222 1.1236979166666656  15.782552083333332 1.0742187499999996  C 15.726475694444446 1.0247395833333321  15.660069444444446 1.0000000000000004  15.583333333333332 1  Z M 1.4166666666666665 11  L 15.583333333333332 11  C 15.660069444444446 11  15.726475694444446 10.975260416666666  15.782552083333332 10.92578125  C 15.838628472222222 10.876302083333334  15.866666666666667 10.817708333333334  15.866666666666667 10.75  L 15.866666666666667 6  L 1.1333333333333333 6  L 1.1333333333333333 10.75  C 1.1333333333333333 10.817708333333334  1.1613715277777779 10.876302083333334  1.2174479166666665 10.92578125  C 1.2735243055555558 10.975260416666666  1.3399305555555558 11  1.4166666666666665 11  Z M 4.533333333333333 10  L 2.2666666666666666 10  L 2.2666666666666666 9  L 4.533333333333333 9  L 4.533333333333333 10  Z M 9.066666666666666 10  L 5.666666666666666 10  L 5.666666666666666 9  L 9.066666666666666 9  L 9.066666666666666 10  Z " fill-rule="nonzero" fill="#ffffff" stroke="none" transform="matrix(1 0 0 1 31 77 )" />
  </g>
</svg>