<?xml version="1.0" encoding="utf-8"?>
<svg version="1.1" xmlns:xlink="http://www.w3.org/1999/xlink" width="14px" height="12px" xmlns="http://www.w3.org/2000/svg">
  <g transform="matrix(1 0 0 1 -32 -36 )">
    <path d="M 11.987608426270137 6.85580670303975  C 11.993391160677406 6.868277474668744  11.996282527881041 6.886983632112237  11.996282527881041 6.911925175370226  L 11.996282527881041 11.401402961808262  C 11.996282527881041 11.56352299298519  11.94134655101198 11.703819173811379  11.831474597273854 11.822291504286827  C 11.72160264353573 11.940763834762276  11.591491119372161 12  11.441140024783147 12  L 8.110285006195786 12  L 8.110285006195786 8.40841777084957  L 5.889714993804213 8.40841777084957  L 5.889714993804213 12  L 2.5588599752168526 12  C 2.40850888062784 12  2.2783973564642714 11.940763834762276  2.168525402726146 11.822291504286827  C 2.0586534489880215 11.703819173811379  2.003717472118959 11.56352299298519  2.003717472118959 11.401402961808262  L 2.003717472118959 6.911925175370226  C 2.003717472118959 6.905689789555728  2.0051631557207767 6.896336710833983  2.0080545229244113 6.883865939204988  C 2.0109458901280464 6.871395167575994  2.0123915737298637 6.862042088854248  2.0123915737298637 6.85580670303975  L 7 2.42244738893219  L 11.987608426270137 6.85580670303975  Z M 13.991325898389094 6.04676539360873  C 13.997108632796365 6.1309431021044425  13.976869062370923 6.204208885424785  13.930607187112763 6.266562743569759  L 13.39281288723668 6.958690568978956  C 13.346551011978523 7.014809041309432  13.28583230070219 7.049103663289166  13.210656753407683 7.06157443491816  L 13.184634448574968 7.06157443491816  C 13.109458901280464 7.06157443491816  13.048740190004132 7.03975058456742  13.002478314745971 6.996102883865938  L 7 1.5993764614185504  L 0.9975216852540272 6.996102883865938  C 0.9281288723667906 7.045985970381916  0.8587360594795539 7.067809820732657  0.7893432465923172 7.06157443491816  C 0.7141676992978109 7.049103663289166  0.6534489880214788 7.014809041309432  0.6071871127633209 6.958690568978956  L 0.06939281288723669 6.266562743569759  C 0.023130937629078904 6.204208885424785  0.002891367203634882 6.1309431021044425  0.008674101610904586 6.04676539360873  C 0.01445683601817435 5.962587685113016  0.04626187525815781 5.89555728760717  0.10408921933085502 5.845674201091192  L 6.340768277571252 0.24318004676539395  C 6.525815778603883 0.08106001558846332  6.745559686080132 0  7 0  C 7.2544403139198685 0  7.4741842213961185 0.08106001558846332  7.659231722428748 0.24318004676539395  L 9.775712515489467 2.151208106001558  L 9.775712515489467 0.3273577552611062  C 9.775712515489467 0.24006235385814367  9.80173482032218 0.16835541699142587  9.853779429987608 0.11223694466095147  C 9.905824039653035 0.05611847233047573  9.972325485336638 0.028059236165237866  10.053283767038414 0.028059236165237866  L 11.718711276332094 0.028059236165237866  C 11.799669558033871 0.028059236165237866  11.866171003717472 0.05611847233047573  11.918215613382898 0.11223694466095147  C 11.970260223048326 0.16835541699142587  11.996282527881041 0.24006235385814367  11.996282527881041 0.3273577552611062  L 11.996282527881041 4.143413873733437  L 13.895910780669144 5.845674201091192  C 13.953738124741843 5.89555728760717  13.985543163981827 5.962587685113016  13.991325898389094 6.04676539360873  Z " fill-rule="nonzero" fill="#ffffff" stroke="none" transform="matrix(1 0 0 1 32 36 )" />
  </g>
</svg>