<?xml version="1.0" encoding="utf-8"?>
<svg version="1.1" xmlns:xlink="http://www.w3.org/1999/xlink" width="20px" height="18px" xmlns="http://www.w3.org/2000/svg">
  <g transform="matrix(1 0 0 1 -26 -23 )">
    <path d="M 0 3.8571428571428577  L 10 0  L 20 3.8571428571428577  L 20 5.142857142857142  L 18.666666666666668 5.142857142857142  C 18.666666666666668 5.316964285714286  18.595486111111114 5.467633928571429  18.453125 5.594866071428572  C 18.31076388888889 5.722098214285712  18.14236111111111 5.785714285714285  17.947916666666664 6  L 2.052083333333333 6  C 1.8576388888888888 5.785714285714285  1.6892361111111112 5.722098214285712  1.546875 5.594866071428572  C 1.4045138888888888 5.467633928571429  1.3333333333333333 5.316964285714286  1.3333333333333333 5.142857142857142  L 0 5.142857142857142  L 0 3.8571428571428577  Z M 2.6666666666666665 14.142857142857142  L 2.6666666666666665 6.428571428571428  L 5.333333333333333 6.428571428571428  L 5.333333333333333 14.142857142857142  L 6.666666666666666 14.142857142857142  L 6.666666666666666 6.428571428571428  L 9.333333333333334 6.428571428571428  L 9.333333333333334 14.142857142857142  L 10.666666666666666 14.142857142857142  L 10.666666666666666 6.428571428571428  L 13.333333333333332 6.428571428571428  L 13.333333333333332 14.142857142857142  L 14.666666666666666 14.142857142857142  L 14.666666666666666 6.428571428571428  L 17.333333333333336 6.428571428571428  L 17.333333333333336 14.142857142857142  L 17.947916666666664 14.142857142857142  C 18.14236111111111 14.142857142857142  18.31076388888889 14.206473214285714  18.453125 14.333705357142858  C 18.595486111111114 14.460937500000002  18.666666666666668 14.611607142857144  18.666666666666668 14.785714285714285  L 18.666666666666668 15.42857142857143  L 1.3333333333333333 15.42857142857143  L 1.3333333333333333 14.785714285714285  C 1.3333333333333333 14.611607142857144  1.4045138888888888 14.460937500000002  1.546875 14.333705357142858  C 1.6892361111111112 14.206473214285714  1.8576388888888888 14.142857142857142  2.052083333333333 14.142857142857142  L 2.6666666666666665 14.142857142857142  Z M 0.71875 16  L 19.28125 16  C 19.475694444444443 16.071428571428573  19.64409722222222 16.135044642857142  19.786458333333336 16.262276785714285  C 19.928819444444446 16.38950892857143  20.000000000000004 16.540178571428573  20 16.714285714285715  L 20 18  L 0 18  L 0 16.714285714285715  C 0 16.540178571428573  0.07118055555555555 16.38950892857143  0.21354166666666669 16.262276785714285  C 0.35590277777777785 16.135044642857142  0.5243055555555556 16.071428571428573  0.71875 16  Z " fill-rule="nonzero" fill="#000000" stroke="none" transform="matrix(1 0 0 1 26 23 )" />
  </g>
</svg>