<?xml version="1.0" encoding="utf-8"?>
<svg version="1.1" xmlns:xlink="http://www.w3.org/1999/xlink" width="20px" height="21px" xmlns="http://www.w3.org/2000/svg">
  <g transform="matrix(1 0 0 1 -1372 -25 )">
    <path d="M 10 20.0625  C 10.12820512820513 20.0625  10.192307692307693 20  10.192307692307692 19.875  C 10.192307692307693 19.75  10.12820512820513 19.6875  10 19.6875  C 9.527243589743591 19.6875  9.12059294871795 19.521484374999996  8.780048076923077 19.189453125  C 8.439503205128206 18.857421875  8.269230769230768 18.4609375  8.269230769230768 18  C 8.269230769230768 17.875  8.205128205128206 17.8125  8.076923076923077 17.8125  C 7.948717948717949 17.8125  7.884615384615384 17.875  7.884615384615384 18  C 7.884615384615384 18.5703125  8.090945512820513 19.056640625  8.503605769230768 19.458984375  C 8.916266025641026 19.861328125  9.415064102564104 20.0625  10 20.0625  Z M 18.90625 15.468749999999998  C 19.234775641025642 15.828125  19.599358974358974 16.171875  20 16.5  C 20.000000000000004 16.90625  19.847756410256412 17.257812500000004  19.54326923076923 17.5546875  C 19.23878205128205 17.851562499999996  18.87820512820513 18  18.461538461538463 18  L 13.076923076923077 18  C 13.076923076923077 18.828125000000004  12.776442307692308 19.53515625  12.175480769230768 20.12109375  C 11.574519230769232 20.70703125  10.849358974358976 21  10 21  C 9.150641025641026 21  8.425480769230768 20.70703125  7.824519230769232 20.12109375  C 7.2235576923076925 19.53515625  6.923076923076923 18.828125000000004  6.923076923076923 18  L 1.5384615384615385 18  C 1.121794871794872 18  0.7612179487179488 17.851562499999996  0.4567307692307692 17.5546875  C 0.15224358974358979 17.257812500000004  0 16.90625  0 16.5  C 0.40064102564102577 16.171875  0.7652243589743591 15.828125  1.09375 15.468749999999998  C 1.4222756410256412 15.109374999999998  1.762820512820513 14.642578125  2.1153846153846154 14.068359375  C 2.4679487179487185 13.494140625  2.7664262820512824 12.874999999999998  3.010817307692308 12.2109375  C 3.255208333333334 11.546875  3.4555288461538463 10.7421875  3.6117788461538463 9.796874999999998  C 3.7680288461538463 8.8515625  3.8461538461538463 7.835937499999997  3.8461538461538463 6.749999999999999  C 3.8461538461538463 5.562499999999999  4.314903846153847 4.458984375  5.252403846153846 3.439453124999999  C 6.189903846153846 2.419921875  7.419871794871796 1.8007812499999987  8.942307692307693 1.5820312499999993  C 8.87820512820513 1.4335937499999982  8.846153846153847 1.28125  8.846153846153847 1.1250000000000007  C 8.846153846153847 0.8124999999999994  8.958333333333334 0.5468749999999992  9.182692307692307 0.328125  C 9.407051282051283 0.10937500000000078  9.679487179487179 0  10 0  C 10.320512820512821 0  10.59294871794872 0.10937500000000078  10.817307692307692 0.328125  C 11.041666666666668 0.5468749999999992  11.153846153846153 0.8124999999999994  11.153846153846153 1.1250000000000007  C 11.153846153846153 1.28125  11.121794871794872 1.4335937499999982  11.057692307692308 1.5820312499999993  C 12.580128205128208 1.8007812499999987  13.810096153846153 2.419921875  14.747596153846153 3.439453124999999  C 15.685096153846153 4.458984375  16.153846153846153 5.562499999999999  16.153846153846153 6.749999999999999  C 16.153846153846153 7.835937499999997  16.231971153846153 8.8515625  16.388221153846153 9.796874999999998  C 16.544471153846153 10.7421875  16.744791666666668 11.546875  16.989182692307693 12.2109375  C 17.23357371794872 12.874999999999998  17.53205128205128 13.494140625  17.884615384615387 14.068359375  C 18.23717948717949 14.642578125  18.577724358974365 15.109374999999998  18.90625 15.468749999999998  Z " fill-rule="nonzero" fill="#000000" stroke="none" transform="matrix(1 0 0 1 1372 25 )" />
  </g>
</svg>