<?xml version="1.0" encoding="utf-8"?>
<svg version="1.1" xmlns:xlink="http://www.w3.org/1999/xlink" width="23px" height="18px" xmlns="http://www.w3.org/2000/svg">
  <g transform="matrix(1 0 0 1 -1117 -542 )">
    <path d="M 1.9166666666666665 0  L 21.083333333333332 0  C 21.610416666666666 0  22.061631944444446 0.18359374999999822  22.436979166666667 0.5507812500000007  C 22.81232638888889 0.9179687499999991  23.000000000000004 1.3593750000000007  23 1.8749999999999993  L 23 16.125  C 23.000000000000004 16.640625  22.81232638888889 17.08203125  22.436979166666667 17.44921875  C 22.061631944444446 17.81640625  21.610416666666666 18  21.083333333333332 18  L 1.9166666666666665 18  C 1.3895833333333334 18  0.9383680555555557 17.81640625  0.5630208333333333 17.44921875  C 0.1876736111111111 17.08203125  0 16.640625  0 16.125  L 0 1.8749999999999993  C 0 1.3593750000000007  0.1876736111111111 0.9179687499999991  0.5630208333333333 0.5507812500000007  C 0.9383680555555557 0.18359374999999822  1.3895833333333334 0  1.9166666666666665 0  Z M 21.083333333333332 1.5000000000000007  L 1.9166666666666665 1.5000000000000007  C 1.8128472222222225 1.5000000000000007  1.7230034722222225 1.5371093749999982  1.6471354166666665 1.6113281249999993  C 1.5712673611111112 1.6855468749999984  1.5333333333333332 1.7734374999999984  1.5333333333333332 1.8749999999999993  L 1.5333333333333332 4.5  L 21.46666666666667 4.5  L 21.46666666666667 1.8749999999999993  C 21.46666666666667 1.7734374999999984  21.42873263888889 1.6855468749999984  21.352864583333332 1.6113281249999993  C 21.27699652777778 1.5371093749999982  21.18715277777778 1.5000000000000007  21.083333333333332 1.5000000000000007  Z M 1.9166666666666665 16.5  L 21.083333333333332 16.5  C 21.18715277777778 16.5  21.27699652777778 16.462890625  21.352864583333332 16.388671875  C 21.42873263888889 16.314453125  21.46666666666667 16.2265625  21.46666666666667 16.125  L 21.46666666666667 9  L 1.5333333333333332 9  L 1.5333333333333332 16.125  C 1.5333333333333332 16.2265625  1.5712673611111112 16.314453125  1.6471354166666665 16.388671875  C 1.7230034722222225 16.462890625  1.8128472222222225 16.5  1.9166666666666665 16.5  Z M 6.133333333333333 15  L 3.0666666666666664 15  L 3.0666666666666664 13.5  L 6.133333333333333 13.5  L 6.133333333333333 15  Z M 12.266666666666666 15  L 7.666666666666666 15  L 7.666666666666666 13.5  L 12.266666666666666 13.5  L 12.266666666666666 15  Z " fill-rule="nonzero" fill="#000000" stroke="none" transform="matrix(1 0 0 1 1117 542 )" />
  </g>
</svg>