<?xml version="1.0" encoding="utf-8"?>
<svg version="1.1" xmlns:xlink="http://www.w3.org/1999/xlink" width="25px" height="25px" xmlns="http://www.w3.org/2000/svg">
  <g transform="matrix(1 0 0 1 -561 -161 )">
    <path d="M 1.9230769230769231 19.19642857142857  L 1.9230769230769231 23.214285714285715  L 6.25 23.214285714285715  L 6.25 19.19642857142857  L 1.9230769230769231 19.19642857142857  Z M 7.211538461538461 19.19642857142857  L 7.211538461538461 23.214285714285715  L 12.01923076923077 23.214285714285715  L 12.01923076923077 19.19642857142857  L 7.211538461538461 19.19642857142857  Z M 1.9230769230769231 13.839285714285715  L 1.9230769230769231 18.30357142857143  L 6.25 18.30357142857143  L 6.25 13.839285714285715  L 1.9230769230769231 13.839285714285715  Z M 7.211538461538461 13.839285714285715  L 7.211538461538461 18.30357142857143  L 12.01923076923077 18.30357142857143  L 12.01923076923077 13.839285714285715  L 7.211538461538461 13.839285714285715  Z M 1.9230769230769231 8.928571428571427  L 1.9230769230769231 12.94642857142857  L 6.25 12.94642857142857  L 6.25 8.928571428571427  L 1.9230769230769231 8.928571428571427  Z M 12.980769230769232 19.19642857142857  L 12.980769230769232 23.214285714285715  L 17.78846153846154 23.214285714285715  L 17.78846153846154 19.19642857142857  L 12.980769230769232 19.19642857142857  Z M 7.211538461538461 8.928571428571427  L 7.211538461538461 12.94642857142857  L 12.01923076923077 12.94642857142857  L 12.01923076923077 8.928571428571427  L 7.211538461538461 8.928571428571427  Z M 18.75 19.19642857142857  L 18.75 23.214285714285715  L 23.076923076923077 23.214285714285715  L 23.076923076923077 19.19642857142857  L 18.75 19.19642857142857  Z M 12.980769230769232 13.839285714285715  L 12.980769230769232 18.30357142857143  L 17.78846153846154 18.30357142857143  L 17.78846153846154 13.839285714285715  L 12.980769230769232 13.839285714285715  Z M 7.549579326923077 6.563895089285715  C 7.644731570512821 6.475539434523808  7.6923076923076925 6.3709077380952355  7.6923076923076925 6.25  L 7.6923076923076925 2.2321428571428577  C 7.6923076923076925 2.111235119047619  7.644731570512821 2.0066034226190466  7.549579326923077 1.9182477678571423  C 7.454427083333334 1.8298921130952355  7.341746794871796 1.785714285714285  7.211538461538461 1.785714285714285  L 6.25 1.785714285714285  C 6.119791666666667 1.785714285714285  6.007111378205129 1.8298921130952355  5.911959134615385 1.9182477678571423  C 5.8168068910256405 2.0066034226190466  5.769230769230769 2.111235119047619  5.769230769230769 2.2321428571428577  L 5.769230769230769 6.25  C 5.769230769230769 6.3709077380952355  5.8168068910256405 6.475539434523808  5.911959134615385 6.563895089285715  C 6.007111378205129 6.6522507440476195  6.119791666666667 6.696428571428573  6.25 6.696428571428573  L 7.211538461538461 6.696428571428573  C 7.341746794871796 6.696428571428573  7.454427083333334 6.6522507440476195  7.549579326923077 6.563895089285715  Z M 18.75 13.839285714285715  L 18.75 18.30357142857143  L 23.076923076923077 18.30357142857143  L 23.076923076923077 13.839285714285715  L 18.75 13.839285714285715  Z M 12.980769230769232 8.928571428571427  L 12.980769230769232 12.94642857142857  L 17.78846153846154 12.94642857142857  L 17.78846153846154 8.928571428571427  L 12.980769230769232 8.928571428571427  Z M 18.75 8.928571428571427  L 18.75 12.94642857142857  L 23.076923076923077 12.94642857142857  L 23.076923076923077 8.928571428571427  L 18.75 8.928571428571427  Z M 19.088040865384613 6.563895089285715  C 19.18319310897436 6.475539434523808  19.230769230769234 6.3709077380952355  19.230769230769234 6.25  L 19.230769230769234 2.2321428571428577  C 19.230769230769234 2.111235119047619  19.18319310897436 2.0066034226190466  19.088040865384613 1.9182477678571423  C 18.992888621794872 1.8298921130952355  18.880208333333336 1.785714285714285  18.75 1.785714285714285  L 17.78846153846154 1.785714285714285  C 17.658253205128208 1.785714285714285  17.545572916666668 1.8298921130952355  17.450420673076923 1.9182477678571423  C 17.355268429487182 2.0066034226190466  17.307692307692307 2.111235119047619  17.307692307692307 2.2321428571428577  L 17.307692307692307 6.25  C 17.307692307692307 6.3709077380952355  17.355268429487182 6.475539434523808  17.450420673076923 6.563895089285715  C 17.545572916666668 6.6522507440476195  17.658253205128208 6.696428571428573  17.78846153846154 6.696428571428573  L 18.75 6.696428571428573  C 18.880208333333336 6.696428571428573  18.992888621794872 6.6522507440476195  19.088040865384613 6.563895089285715  Z M 24.42908653846154 4.1015625  C 24.809695512820515 4.4549851190476195  25 4.873511904761904  25 5.357142857142858  L 25 23.214285714285715  C 25 23.697916666666668  24.809695512820515 24.116443452380953  24.42908653846154 24.469866071428573  C 24.048477564102566 24.82328869047619  23.597756410256412 25  23.076923076923077 25  L 1.9230769230769231 25  C 1.4022435897435899 25  0.951522435897436 24.82328869047619  0.5709134615384615 24.469866071428573  C 0.19030448717948717 24.116443452380953  0 23.697916666666668  0 23.214285714285715  L 0 5.357142857142858  C 0 4.873511904761904  0.19030448717948717 4.4549851190476195  0.5709134615384615 4.1015625  C 0.951522435897436 3.748139880952378  1.4022435897435899 3.5714285714285725  1.9230769230769231 3.5714285714285725  L 3.8461538461538463 3.5714285714285725  L 3.8461538461538463 2.2321428571428577  C 3.8461538461538463 1.6183035714285725  4.081530448717949 1.092819940476189  4.552283653846153 0.6556919642857151  C 5.0230368589743595 0.21856398809523836  5.588942307692308 0  6.25 0  L 7.211538461538461 0  C 7.872596153846153 0  8.438501602564104 0.21856398809523836  8.909254807692307 0.6556919642857151  C 9.380008012820513 1.092819940476189  9.615384615384617 1.6183035714285725  9.615384615384617 2.2321428571428577  L 9.615384615384617 3.5714285714285725  L 15.384615384615385 3.5714285714285725  L 15.384615384615385 2.2321428571428577  C 15.384615384615385 1.6183035714285725  15.619991987179487 1.092819940476189  16.090745192307693 0.6556919642857151  C 16.5614983974359 0.21856398809523836  17.127403846153847 0  17.78846153846154 0  L 18.75 0  C 19.411057692307693 0  19.976963141025642 0.21856398809523836  20.447716346153847 0.6556919642857151  C 20.918469551282055 1.092819940476189  21.153846153846153 1.6183035714285725  21.153846153846153 2.2321428571428577  L 21.153846153846153 3.5714285714285725  L 23.076923076923077 3.5714285714285725  C 23.597756410256412 3.5714285714285725  24.048477564102566 3.748139880952378  24.42908653846154 4.1015625  Z " fill-rule="nonzero" fill="#000000" stroke="none" transform="matrix(1 0 0 1 561 161 )" />
  </g>
</svg>